<?xml version="1.0" encoding="iso-8859-1"?>
<!-- Generator: Adobe Illustrator 19.0.0, SVG Export Plug-In . SVG Version: 6.00 Build 0)  -->
<svg version="1.1" id="Capa_1" xmlns="http://www.w3.org/2000/svg" xmlns:xlink="http://www.w3.org/1999/xlink" x="0px" y="0px"
	 viewBox="0 0 59.9 59.9" style="enable-background:new 0 0 59.9 59.9;" xml:space="preserve">
<g>
	<g>
		<path d="M37.9,56.75c0-1.6-1.1-2.9-2.5-2.9h-4.5v-14.7l21.8-27.6c0.2-0.3,0.3-0.8,0.1-1.1c-0.2-0.4-0.5-0.6-0.9-0.6h-9.5l5.9-8.3
			l-1.6-1.2L40,9.85H23.5c-0.2-1-0.4-1.9-0.8-2.7c-1.9-4.3-6.2-7.1-10.8-7.1c-6.5,0-11.7,5.3-11.7,11.8s5.2,11.8,11.7,11.8v-2
			c-5.3,0-9.7-4.4-9.7-9.8c0-5.4,4.4-9.8,9.7-9.8c3.9,0,7.4,2.3,9,5.9c0.3,0.6,0.5,1.2,0.6,1.9H7.9c-0.4,0-0.7,0.1-0.9,0.5
			s-0.1,0.8,0.1,1.1L29,39.35v14.5h-4.5c-1.5,0-2.5,1.6-2.5,3v1H0v2h46v-2h-8v-1.1H37.9z M20.9,25.85l-1.6-2h21l-4.7,6h-6.7v2h5.2
			l-4.3,5.4l-7.4-9.4h5.5v-2H20.9z M49.8,11.85l-7.9,10h-8l7-10H49.8z M21.6,11.85h2h14.9l-7,10H17.8l-7.8-10H21.6z M23.9,56.85
			c0-0.6,0.4-1,0.5-1h4.5h2h4.5c0.1,0,0.5,0.4,0.5,1v1h-12V56.85z"/>
		<rect x="47.9" y="57.85" width="12" height="2"/>
		<rect x="2.9" y="38.85" width="13" height="2"/>
		<rect x="17.9" y="38.85" width="5" height="2"/>
		<rect x="43.9" y="38.85" width="13" height="2"/>
		<rect x="36.9" y="38.85" width="5" height="2"/>
		<rect x="6.9" y="47.85" width="17" height="2"/>
		<rect x="35.9" y="45.85" width="17" height="2"/>
	</g>
</g>
<g>
</g>
<g>
</g>
<g>
</g>
<g>
</g>
<g>
</g>
<g>
</g>
<g>
</g>
<g>
</g>
<g>
</g>
<g>
</g>
<g>
</g>
<g>
</g>
<g>
</g>
<g>
</g>
<g>
</g>
</svg>
